<?xml version="1.0" encoding="utf-8"?><!-- Uploaded to: SVG Repo, www.svgrepo.com, Generator: SVG Repo Mixer Tools -->
<svg fill="#000000" width="800px" height="800px" viewBox="0 0 32 32" xmlns="http://www.w3.org/2000/svg" xmlns:xlink="http://www.w3.org/1999/xlink" version="1.1" id="resize"  enable-background="new 0 0 32 32" xml:space="preserve">
  <path d="M28 10V4h-6v2H10V4H4v6h2v12H4v6h6v-2h12v2h6v-6h-2V10H28zM24 6h2v2h-2V6zM6 6h2v2H6V6zM8 26H6v-2h2V26zM26 26h-2v-2h2V26zM24 22h-2v2H10v-2H8V10h2V8h12v2h2V22z"/>
  <polygon points="17,12 15,12 15,15 12,15 12,17 15,17 15,20 17,20 17,17 20,17 20,15 17,15 "/>
</svg>